<?xml version="1.0" standalone="no"?>
<!DOCTYPE svg PUBLIC "-//W3C//DTD SVG 20010904//EN"
 "http://www.w3.org/TR/2001/REC-SVG-20010904/DTD/svg10.dtd">
<svg version="1.0" xmlns="http://www.w3.org/2000/svg"
 width="512.000000pt" height="512.000000pt" viewBox="0 0 512.000000 512.000000"
 preserveAspectRatio="xMidYMid meet">

<g transform="translate(0.000000,512.000000) scale(0.100000,-0.100000)"
fill="#fff" stroke="none">
<path d="M1155 4774 c-240 -60 -436 -250 -512 -499 -17 -57 -18 -141 -18
-1807 l0 -1746 24 -26 c32 -34 88 -36 119 -3 l22 23 0 1715 c0 1899 -4 1776
66 1910 24 46 59 91 104 133 112 105 219 146 385 146 173 0 275 -41 400 -160
90 -87 111 -98 153 -76 42 22 57 64 39 107 -18 44 -148 167 -220 208 -116 66
-186 84 -352 87 -109 2 -166 -1 -210 -12z"/>
<path d="M1904 4170 c-241 -37 -438 -213 -498 -447 -11 -41 -16 -106 -16 -195
0 -132 1 -135 26 -159 l26 -24 545 0 545 0 24 28 c23 26 24 36 24 151 0 201
-45 331 -156 455 -30 32 -80 76 -111 97 -111 74 -284 114 -409 94z m271 -214
c147 -73 235 -218 235 -388 l0 -58 -426 0 -426 0 4 89 c4 78 9 99 41 164 107
216 356 300 572 193z"/>
<path d="M1818 2821 c-148 -48 -253 -152 -304 -301 -15 -44 -19 -86 -19 -212
0 -152 1 -157 24 -182 32 -34 88 -36 118 -3 19 20 21 37 25 172 3 129 7 157
26 200 27 59 82 118 137 148 40 22 47 22 628 25 l587 3 0 -496 0 -496 25 -24
c33 -34 87 -34 120 0 l25 24 0 496 0 496 578 -3 c570 -3 577 -3 617 -25 55
-30 110 -89 137 -148 22 -48 23 -62 26 -354 4 -323 4 -320 -43 -321 -38 0
-140 -57 -187 -104 -59 -58 -96 -133 -110 -221 -20 -135 7 -205 82 -205 58 0
76 28 83 127 8 101 22 138 75 185 51 46 93 58 212 58 79 0 104 -4 145 -24 59
-27 77 -46 104 -106 20 -43 21 -64 21 -445 0 -249 -4 -414 -11 -438 -13 -47
-60 -102 -110 -128 -34 -17 -60 -19 -239 -19 l-200 0 0 288 0 289 -26 24 -26
24 -983 0 -983 0 -26 -24 c-36 -34 -36 -88 0 -122 l26 -24 923 -3 924 -2 3
-284 3 -284 25 -27 25 -26 285 3 285 3 56 28 c70 34 152 119 187 194 l27 58 3
438 c3 382 1 446 -13 495 -42 146 -155 246 -307 275 l-58 11 0 275 c0 152 -5
305 -10 341 -21 135 -115 272 -231 334 -106 58 -49 56 -1389 55 -1167 0 -1238
-1 -1292 -18z"/>
<path d="M1420 1817 c-145 -42 -247 -147 -280 -289 -5 -25 -10 -219 -10 -453
0 -442 3 -473 53 -558 35 -59 102 -121 167 -154 l55 -28 1240 -3 c682 -1 1250
0 1263 3 13 3 30 20 39 40 14 29 14 38 3 66 -26 62 38 59 -1285 59 -1174 0
-1207 1 -1244 19 -50 26 -97 81 -110 128 -7 24 -11 189 -11 438 0 400 0 400
24 451 45 97 114 128 273 122 119 -4 147 -14 201 -69 55 -56 62 -100 62 -396
l0 -264 25 -24 c31 -32 75 -32 112 -1 l28 24 3 261 c2 155 -1 285 -8 319 -23
127 -102 230 -218 285 -63 30 -74 32 -202 34 -88 2 -151 -2 -180 -10z"/>
<path d="M63 493 c-31 -6 -63 -50 -63 -85 0 -17 10 -39 25 -53 l24 -25 436 0
436 0 24 25 c32 31 32 75 1 112 l-24 28 -419 1 c-230 1 -428 0 -440 -3z"/>
</g>
</svg>
