<?xml version="1.0" standalone="no"?>
<!DOCTYPE svg PUBLIC "-//W3C//DTD SVG 20010904//EN"
 "http://www.w3.org/TR/2001/REC-SVG-20010904/DTD/svg10.dtd">
<svg version="1.0" xmlns="http://www.w3.org/2000/svg"
 width="512.000000pt" height="512.000000pt" viewBox="0 0 512.000000 512.000000"
 preserveAspectRatio="xMidYMid meet">

<g transform="translate(0.000000,512.000000) scale(0.100000,-0.100000)"
fill="#fff" stroke="none">
<path d="M25 5095 c-16 -15 -25 -36 -25 -55 0 -33 38 -80 65 -80 13 0 15 -69
15 -640 0 -571 -2 -640 -15 -640 -9 0 -27 -11 -40 -25 -25 -24 -25 -26 -25
-215 0 -189 0 -191 25 -215 l24 -25 909 0 c1044 0 952 -9 962 93 l5 56 129
-112 128 -112 -72 -5 c-60 -4 -75 -9 -91 -29 -26 -32 -24 -77 6 -106 24 -25
27 -25 200 -25 l175 0 0 -80 0 -80 -320 0 -320 0 0 80 0 80 55 0 c46 0 60 4
80 25 33 32 33 78 0 110 -23 24 -31 25 -135 25 -104 0 -112 -1 -135 -25 -25
-24 -25 -26 -25 -215 0 -189 0 -191 25 -215 23 -24 29 -25 160 -25 l135 0 0
-55 c0 -46 4 -60 25 -80 23 -24 31 -25 135 -25 104 0 112 1 135 25 21 20 25
34 25 80 l0 55 134 0 c164 0 178 7 186 93 l5 56 129 -112 128 -112 -272 -5
c-271 -5 -272 -5 -291 -29 -17 -21 -19 -41 -19 -213 0 -187 0 -189 25 -213 23
-24 29 -25 160 -25 l135 0 0 -55 c0 -46 4 -60 25 -80 23 -24 31 -25 135 -25
104 0 112 1 135 25 21 20 25 34 25 80 l0 55 134 0 c164 0 178 7 186 93 l5 56
129 -112 128 -112 -272 -5 c-271 -5 -272 -5 -291 -29 -17 -21 -19 -41 -19
-213 0 -187 0 -189 25 -213 23 -24 29 -25 160 -25 l135 0 0 -55 c0 -46 4 -60
25 -80 23 -24 31 -25 135 -25 104 0 112 1 135 25 21 20 25 34 25 80 l0 55 134
0 c164 0 178 7 186 93 l5 56 129 -112 128 -112 -272 -5 c-271 -5 -272 -5 -291
-29 -17 -21 -19 -41 -19 -213 0 -187 0 -189 25 -213 23 -24 29 -25 160 -25
l135 0 0 -40 0 -40 -95 0 c-88 0 -98 -2 -120 -25 -24 -23 -25 -29 -25 -160 l0
-135 -175 0 c-173 0 -176 0 -200 -25 l-25 -24 0 -231 0 -231 25 -24 24 -25
911 0 911 0 24 25 25 24 0 391 0 391 -25 24 c-23 24 -31 25 -135 25 -104 0
-112 -1 -135 -25 -33 -32 -33 -78 0 -110 20 -21 34 -25 80 -25 l55 0 0 -80 0
-80 -600 0 -600 0 0 80 0 80 455 0 456 0 24 25 c33 32 33 78 0 110 l-24 25
-256 0 -255 0 0 40 0 40 135 0 c131 0 137 1 160 25 25 24 25 26 25 215 0 189
0 191 -25 215 -13 14 -31 25 -40 25 -13 0 -15 75 -15 694 0 646 -1 695 -17
714 -28 33 -2544 2232 -2578 2253 -29 18 -67 19 -893 19 l-863 0 -24 -25z
m1655 -775 l0 -640 -612 0 c-338 0 -608 4 -602 9 5 4 216 185 469 401 253 216
470 403 483 417 46 50 10 133 -58 133 -28 0 -298 -225 -1102 -918 -17 -14 -18
-8 -18 114 l1 129 290 240 c311 257 349 293 349 329 0 41 -37 76 -78 76 -33 0
-62 -21 -299 -221 l-263 -220 0 396 0 395 720 0 720 0 0 -640z m594 165 l366
-320 -32 -29 c-113 -99 -128 -116 -128 -147 0 -40 39 -79 79 -79 22 0 50 17
108 66 43 36 83 68 90 71 10 4 1234 -1057 1241 -1076 1 -4 -156 -143 -349
-309 l-352 -301 -48 42 c-39 34 -48 48 -49 75 0 35 -37 82 -65 82 -13 0 -15
59 -15 535 l0 536 -25 24 c-29 30 -74 32 -106 6 l-24 -19 -5 -490 -5 -491
-195 171 c-182 159 -195 173 -201 211 -7 51 -38 77 -90 77 -35 0 -53 13 -221
160 -101 88 -183 164 -183 169 0 5 68 68 152 140 83 71 158 140 167 153 49 70
-40 153 -111 103 -12 -8 -92 -76 -179 -150 -87 -74 -161 -135 -166 -135 -4 0
-8 16 -8 35 0 38 -36 85 -65 85 -13 0 -15 65 -15 591 l0 590 34 -28 c18 -15
198 -172 400 -348z m-514 -1045 l0 -80 -800 0 -800 0 0 80 0 80 800 0 800 0 0
-80z m2426 -627 c53 -47 54 -49 54 -104 l0 -56 -111 -94 c-61 -52 -115 -101
-120 -111 -34 -63 40 -141 103 -107 12 7 47 32 76 57 l52 44 0 -453 0 -452
-22 20 c-13 11 -102 89 -198 173 -161 142 -175 157 -181 193 -7 51 -38 77 -90
77 -34 0 -51 12 -180 124 -77 68 -141 127 -141 131 1 6 692 604 700 605 2 0
28 -21 58 -47z m-1146 -493 l0 -80 -320 0 -320 0 0 80 0 80 320 0 320 0 0 -80z
m640 -560 l0 -80 -320 0 -320 0 0 80 0 80 320 0 320 0 0 -80z m640 -560 l0
-80 -320 0 -320 0 0 80 0 80 320 0 320 0 0 -80z m640 -920 l0 -120 -800 0
-800 0 0 120 0 120 800 0 800 0 0 -120z"/>
<path d="M1025 4824 c-37 -31 -70 -67 -75 -80 -18 -45 26 -104 76 -104 23 0
79 37 137 92 45 43 50 86 12 123 -40 41 -74 33 -150 -31z"/>
<path d="M3792 2270 c-122 -107 -136 -137 -87 -185 49 -49 103 -24 242 110 59
57 66 85 32 129 -15 20 -29 26 -58 26 -32 0 -49 -11 -129 -80z"/>
<path d="M4025 5095 c-24 -23 -25 -29 -25 -168 l0 -145 -30 -12 c-43 -18 -105
-92 -119 -143 -8 -28 -11 -99 -9 -204 3 -176 7 -189 72 -237 25 -19 42 -21
166 -21 124 0 141 2 166 21 65 48 69 61 72 237 2 105 -1 176 -9 204 -14 51
-76 125 -119 143 l-30 12 0 145 c0 139 -1 145 -25 168 -15 16 -36 25 -55 25
-19 0 -40 -9 -55 -25z m110 -480 c24 -23 25 -29 25 -160 l0 -135 -80 0 -80 0
0 135 c0 131 1 137 25 160 15 16 36 25 55 25 19 0 40 -9 55 -25z"/>
<path d="M4425 5095 l-25 -24 0 -544 0 -545 -30 -12 c-43 -18 -105 -92 -119
-143 -8 -28 -11 -99 -9 -204 3 -176 7 -189 72 -237 25 -19 42 -21 166 -21 124
0 141 2 166 21 65 48 69 61 72 237 2 105 -1 176 -9 204 -14 51 -76 125 -119
143 l-30 12 0 545 0 544 -25 24 c-15 16 -36 25 -55 25 -19 0 -40 -9 -55 -25z
m110 -1280 c24 -23 25 -29 25 -160 l0 -135 -80 0 -80 0 0 135 c0 131 1 137 25
160 15 16 36 25 55 25 19 0 40 -9 55 -25z"/>
<path d="M4825 5095 l-25 -24 0 -224 0 -225 -30 -12 c-43 -18 -105 -92 -119
-143 -8 -28 -11 -99 -9 -204 3 -176 7 -189 72 -237 25 -19 42 -21 166 -21 124
0 141 2 166 21 65 48 69 61 72 237 2 105 -1 176 -9 204 -14 51 -76 125 -119
143 l-30 12 0 225 0 224 -25 24 c-15 16 -36 25 -55 25 -19 0 -40 -9 -55 -25z
m110 -640 c24 -23 25 -29 25 -160 l0 -135 -80 0 -80 0 0 135 c0 131 1 137 25
160 15 16 36 25 55 25 19 0 40 -9 55 -25z"/>
<path d="M661 3015 c-32 -42 -79 -275 -106 -530 -8 -80 -15 -150 -15 -157 0
-7 -34 50 -75 128 -41 77 -83 149 -95 159 -31 28 -79 24 -108 -10 -23 -27 -24
-33 -17 -114 9 -119 42 -368 60 -452 8 -39 15 -75 15 -81 0 -6 -26 13 -57 43
-108 102 -147 129 -186 129 -41 0 -77 -36 -77 -76 0 -36 92 -307 137 -405 41
-88 132 -238 158 -259 29 -24 14 -30 -71 -30 -90 0 -117 -8 -134 -40 -6 -11
-15 -101 -20 -200 -17 -300 13 -618 74 -798 53 -153 114 -228 234 -285 l67
-32 275 0 275 0 67 32 c127 60 193 146 243 318 56 193 78 460 64 763 -9 176
-19 222 -54 236 -9 3 -68 6 -132 6 l-115 0 19 23 c182 233 302 449 426 762 85
216 94 251 76 283 -17 31 -56 47 -92 39 -24 -7 -120 -110 -302 -327 l-80 -94
-10 130 c-10 136 -18 158 -62 175 -28 10 -79 -6 -89 -29 -4 -9 -8 -129 -9
-267 -1 -181 -6 -276 -18 -345 -16 -95 -61 -251 -52 -180 22 168 28 267 28
470 -1 304 -26 568 -84 879 -17 88 -27 120 -45 138 -33 32 -86 31 -113 -2z
m79 -840 c6 -110 8 -234 4 -275 l-7 -75 -21 55 c-18 49 -20 75 -19 230 0 96 5
218 9 270 7 93 8 94 15 45 5 -27 13 -140 19 -250z m-216 -233 c54 -136 127
-388 126 -435 -1 -32 -56 78 -92 183 -41 119 -111 417 -94 399 2 -2 29 -68 60
-147z m658 -129 c-39 -70 -78 -137 -87 -148 -16 -19 -16 -19 -11 14 3 18 6 44
6 56 0 22 149 220 158 210 2 -2 -27 -62 -66 -132z m-799 -180 c34 -46 117
-203 117 -220 0 -16 -85 78 -125 137 -44 67 -97 167 -110 209 -9 28 55 -40
118 -126z m827 -667 c0 -419 -50 -655 -160 -748 -60 -52 -93 -58 -330 -58
-253 0 -276 5 -345 75 -42 41 -56 64 -77 130 -54 163 -80 423 -70 698 l5 137
488 0 489 0 0 -234z"/>
<path d="M2122 1427 c-39 -18 -122 -198 -169 -367 -34 -120 -39 -309 -10 -374
9 -22 16 -41 14 -43 -9 -9 -64 21 -95 50 -60 57 -103 164 -127 311 -8 49 -13
91 -12 93 2 1 22 -13 44 -32 53 -45 101 -48 132 -9 36 45 28 72 -42 140 -147
143 -228 181 -275 131 -20 -21 -22 -34 -22 -129 0 -186 33 -355 94 -482 l34
-71 -30 -25 c-22 -18 -33 -41 -44 -85 -30 -131 -7 -287 64 -418 30 -57 46 -75
81 -94 44 -23 47 -23 401 -23 354 0 357 0 401 23 35 19 51 37 81 94 71 131 94
287 64 418 -10 40 -23 67 -40 82 l-25 22 24 44 c63 112 103 283 112 483 l6
132 -26 26 c-16 16 -37 26 -55 26 -44 0 -132 -64 -269 -194 -47 -44 -74 -63
-77 -55 -20 65 -66 177 -97 239 -46 93 -80 115 -137 87z m72 -349 c62 -198 61
-324 -5 -399 l-29 -34 -29 34 c-48 55 -62 148 -41 262 14 72 60 219 70 219 4
0 19 -37 34 -82z m397 -121 c-21 -103 -55 -190 -98 -245 -27 -36 -102 -77
-116 -63 -4 4 -1 36 8 72 8 35 15 81 15 102 0 48 37 105 134 205 65 68 71 72
74 49 2 -13 -6 -67 -17 -120z m-31 -539 c0 -72 -17 -142 -51 -210 l-23 -48
-326 0 -326 0 -23 48 c-34 68 -51 138 -51 210 l0 62 400 0 400 0 0 -62z"/>
</g>
</svg>
