<?xml version="1.0" standalone="no"?>
<!DOCTYPE svg PUBLIC "-//W3C//DTD SVG 20010904//EN"
 "http://www.w3.org/TR/2001/REC-SVG-20010904/DTD/svg10.dtd">
<svg version="1.0" xmlns="http://www.w3.org/2000/svg"
 width="512.000000pt" height="512.000000pt" viewBox="0 0 512.000000 512.000000"
 preserveAspectRatio="xMidYMid meet">

<g transform="translate(0.000000,512.000000) scale(0.100000,-0.100000)"
fill="#fff" stroke="none">
<path d="M466 4949 c-62 -15 -153 -68 -197 -116 -22 -24 -55 -74 -72 -111
l-32 -67 0 -1376 0 -1375 37 -76 c45 -91 103 -147 196 -191 l67 -32 503 -3
502 -3 25 25 c33 33 33 79 0 111 -22 23 -32 25 -120 25 l-95 0 0 200 0 200
135 0 c131 0 137 1 160 25 l25 24 0 271 0 271 -25 24 c-23 24 -29 25 -160 25
l-135 0 0 200 0 200 175 0 c173 0 176 0 200 25 33 32 33 78 0 110 -24 25 -27
25 -200 25 l-175 0 0 560 0 560 80 0 80 0 0 -135 c0 -131 1 -137 25 -160 13
-14 31 -25 38 -25 12 0 16 -25 19 -122 4 -100 9 -132 26 -168 34 -71 75 -113
144 -151 58 -31 70 -34 148 -34 78 0 90 3 148 34 70 38 101 70 139 145 23 45
27 66 31 174 4 97 7 122 19 122 7 0 25 11 38 25 24 23 25 29 25 160 l0 135 80
0 80 0 0 -560 0 -560 -173 0 c-123 0 -178 -4 -190 -12 -9 -7 -75 -91 -147
-187 -141 -190 -150 -211 -105 -256 29 -30 74 -33 103 -7 11 9 68 81 126 160
l107 142 195 0 c194 0 195 0 219 25 l25 24 0 616 0 615 640 0 640 0 0 -80 0
-80 -455 0 -456 0 -24 -25 -25 -24 0 -671 0 -671 25 -24 24 -25 456 0 455 0 0
-175 c0 -173 0 -176 25 -200 32 -33 78 -33 110 0 l25 24 0 976 0 975 80 0 80
0 0 -1095 0 -1096 25 -24 c24 -25 26 -25 216 -25 230 0 256 -6 324 -75 71 -70
91 -145 63 -239 -16 -55 -99 -138 -154 -154 -28 -8 -134 -12 -338 -12 l-296 0
0 133 c0 91 -4 138 -12 150 -7 8 -109 93 -227 186 -232 186 -249 194 -296 146
-35 -34 -33 -79 4 -113 16 -15 105 -88 199 -162 l171 -135 1 -102 0 -103 -282
0 -283 0 3 134 c4 133 4 135 -22 160 l-25 26 -671 0 -671 0 -25 -26 c-26 -25
-26 -27 -22 -160 l3 -134 -58 0 c-48 0 -62 -4 -82 -25 -33 -32 -33 -78 0 -111
l24 -24 1464 2 1463 3 76 37 c91 45 147 103 191 196 l32 67 3 783 3 782 -25
25 c-33 33 -79 33 -111 0 l-25 -24 0 -574 0 -573 -72 35 -72 36 -168 4 -168 3
0 1199 0 1199 136 0 c78 0 154 -5 178 -12 55 -16 138 -99 154 -154 9 -30 12
-163 12 -473 l0 -432 25 -24 c32 -33 78 -33 111 0 l25 25 -3 463 -3 462 -32
67 c-44 93 -100 151 -191 196 l-76 37 -223 3 -222 4 -26 -26 c-24 -24 -25 -29
-25 -161 l0 -135 -1495 0 -1496 0 -24 -25 -25 -24 0 -1416 0 -1415 -296 0
c-204 0 -310 4 -338 12 -55 16 -138 99 -154 154 -28 94 -8 169 63 239 68 69
94 75 324 75 190 0 192 0 216 25 l25 24 0 471 0 471 -25 24 c-32 33 -78 33
-110 0 l-25 -24 0 -415 0 -414 -168 -3 -168 -4 -72 -36 -72 -35 0 1134 c0 862
3 1145 12 1176 16 55 99 138 154 154 24 7 100 12 178 12 l136 0 0 -655 0 -656
25 -24 c15 -16 36 -25 55 -25 19 0 40 9 55 25 l25 24 0 711 0 711 -25 24 c-24
25 -24 25 -227 24 -112 -1 -220 -5 -242 -10z m1614 -549 l0 -80 -240 0 -240 0
0 80 0 80 240 0 240 0 0 -80z m-82 -349 c-3 -118 -12 -141 -72 -185 -39 -29
-133 -29 -172 0 -60 44 -69 67 -72 185 l-4 109 162 0 162 0 -4 -109z m1842 29
l0 -80 -400 0 -400 0 0 80 0 80 400 0 400 0 0 -80z m0 -640 l0 -400 -400 0
-400 0 0 400 0 400 400 0 400 0 0 -400z m-2400 -960 l0 -160 -80 0 -80 0 0
160 0 160 80 0 80 0 0 -160z m1680 -615 c0 -46 -4 -60 -25 -80 l-24 -25 -511
0 -511 0 -24 25 c-21 20 -25 34 -25 80 l0 55 560 0 560 0 0 -55z"/>
<path d="M2460 2864 c-227 -82 -293 -362 -125 -529 66 -66 125 -90 225 -89 72
0 93 4 136 26 75 39 107 70 145 140 30 57 33 71 34 148 0 100 -24 159 -90 225
-82 82 -222 116 -325 79z m163 -158 c103 -43 128 -177 48 -257 -65 -65 -157
-65 -222 0 -124 123 13 325 174 257z"/>
<path d="M1875 1384 c-99 -30 -211 -63 -248 -74 -78 -24 -107 -48 -107 -89 0
-54 24 -67 289 -166 l255 -95 543 0 544 0 24 25 c16 15 25 36 25 55 0 19 -9
40 -25 55 l-24 25 -496 0 -495 0 0 80 0 80 760 0 760 0 0 -80 0 -80 -135 0
c-131 0 -137 -1 -160 -25 -33 -32 -33 -78 0 -110 l24 -25 432 0 c310 0 443 3
473 12 55 16 138 99 154 154 26 89 9 163 -55 234 -77 86 11 80 -1247 79
l-1111 -1 -180 -54z m2125 -184 l0 -80 -80 0 -80 0 0 80 0 80 80 0 80 0 0 -80z
m295 55 c16 -15 25 -36 25 -55 0 -51 -38 -80 -105 -80 l-55 0 0 80 0 80 55 0
c46 0 60 -4 80 -25z m-2295 -50 c0 -25 -3 -45 -6 -45 -15 0 -124 43 -124 49 0
6 93 38 118 40 8 1 12 -14 12 -44z"/>
<path d="M185 775 l-25 -24 0 -271 0 -271 25 -24 24 -25 1311 0 1311 0 24 25
c33 32 33 78 0 110 l-24 25 -1256 0 -1255 0 0 160 0 160 80 0 80 0 0 -55 c0
-67 29 -105 80 -105 51 0 80 38 80 105 l0 55 80 0 80 0 0 -55 c0 -67 29 -105
80 -105 51 0 80 38 80 105 l0 55 80 0 80 0 0 -55 c0 -67 29 -105 80 -105 51 0
80 38 80 105 l0 55 80 0 80 0 0 -55 c0 -67 29 -105 80 -105 51 0 80 38 80 105
l0 55 80 0 80 0 0 -55 c0 -67 29 -105 80 -105 51 0 80 38 80 105 l0 55 80 0
80 0 0 -55 c0 -67 29 -105 80 -105 51 0 80 38 80 105 l0 55 80 0 80 0 0 -55
c0 -67 29 -105 80 -105 51 0 80 38 80 105 l0 55 80 0 80 0 0 -55 c0 -67 29
-105 80 -105 51 0 80 38 80 105 l0 55 80 0 80 0 0 -55 c0 -67 29 -105 80 -105
51 0 80 38 80 105 l0 55 80 0 80 0 0 -55 c0 -67 29 -105 80 -105 51 0 80 38
80 105 l0 55 80 0 80 0 0 -55 c0 -67 29 -105 80 -105 51 0 80 38 80 105 l0 55
80 0 80 0 0 -55 c0 -67 29 -105 80 -105 51 0 80 38 80 105 l0 55 80 0 80 0 0
-160 0 -160 -615 0 -616 0 -24 -25 c-33 -32 -33 -78 0 -110 l24 -25 671 0 671
0 24 25 25 24 0 271 0 271 -25 24 -24 25 -2111 0 -2111 0 -24 -25z"/>
</g>
</svg>
